# xmcd
#
# Track frame offsets: 
#        150
#        26942
#        51394
#        70360
#        88948
#        104651
#        124224
#        134212
#        152357
#
# Disc length: 2442 seconds
#
# Revision: 1
# Processed by: cddbd v1.5.2PL0 Copyright (c) Steve Scherf et al.
# Submitted via: ExactAudioCopy v1.0b1
#
DISCID=8c098809
DTITLE=Gugun Blues Shelter - Gugun Blues Shelter
DYEAR=2010
DGENRE=Blues
TTITLE0=Fight For Freedom
TTITLE1=Good Thing Bad Things
TTITLE2=Old Friend
TTITLE3=On The Run
TTITLE4=Emptyness
TTITLE5=When I See You Again
TTITLE6=Whiskey Woman
TTITLE7=You're The Man
TTITLE8=White Dog
EXTD=
EXTT0=
EXTT1=
EXTT2=
EXTT3=
EXTT4=
EXTT5=
EXTT6=
EXTT7=
EXTT8=
PLAYORDER=
